<svg xmlns="http://www.w3.org/2000/svg" width="132" height="83" viewBox="0 0 132 83">
    <g fill="none" fill-rule="evenodd">
        <path fill="#FFF" d="M0 0h132v83H0z"/>
        <path fill="#000" d="M33.837 53.804h-3.23v-8.755H27.26v-2.772h3.348V38.6h-2.696v-2.772h2.696v-6.332h3.23v24.308zM39.111 55V29h-3.289v26h3.29zM27.644 32.064c.03 7.762-2.963 13.686-9.392 17.859L16 47.559c5.096-3.035 7.881-7.587 8.296-12.752H17.66v-2.743h9.985zm30.46 8.287l-1.63 2.597c-2.193-.67-5.067-2.51-6.104-4.698-.889 2.276-3.644 4.494-6.518 5.457l-1.748-2.685c3.703-1.167 6.34-3.589 6.43-7.032H43.17v-2.685h14.37v2.685h-5.48c.118 3.268 2.903 5.34 6.044 6.361zM63.2 29h-3.437v26H63.2V42.19h3.348v-2.83H63.2V29zm-4.622 20.28c-2.519.41-6.4.672-9.482.788-2.666.117-4.977.176-7.022.176l-.444-2.773c2.37 0 4.651 0 6.992-.087V42.19h3.497v5.048c2.43-.146 4.355-.321 6.103-.554l.356 2.597zM89.718 55V29h-3.437v26h3.438zM68.653 40.089c0-5.486 2.518-9.309 6.815-9.309 4.326 0 6.844 3.823 6.844 9.309 0 5.427-2.518 9.25-6.844 9.25-4.297 0-6.815-3.794-6.815-9.25zm10.34 0c0-4.115-1.48-6.566-3.525-6.566-1.986 0-3.437 2.451-3.437 6.566 0 4.085 1.451 6.507 3.437 6.507 2.044 0 3.526-2.422 3.526-6.507zm27.527 7.061l-1.956 2.422c-1.719-.992-3.911-3.443-4.593-5.748-.622 2.422-2.814 5.106-4.977 6.332l-2.104-2.305c3.437-2.16 5.185-4.961 5.392-9.63h-4.325v-2.714h11.881v2.714h-4.148c.207 4.581 1.955 7.295 4.83 8.93zm4.385 6.654h-3.26V42.598h-3.259v-2.743h3.26V29.496h3.259v24.308zM116 55V29h-3.289v26H116zm-12.533-21.214V31.1h-6.904v2.685h6.904z"/>
    </g>
</svg>
