<svg width="33" height="33" viewBox="0 0 33 33" fill="none" xmlns="http://www.w3.org/2000/svg">
<path d="M16.5002 5.83301L16.6929 5.37164C16.5696 5.32013 16.4308 5.32013 16.3074 5.37164L16.5002 5.83301ZM5.8335 10.2887L5.64077 9.82734C5.45467 9.90508 5.3335 10.087 5.3335 10.2887H5.8335ZM5.8335 22.7106H5.3335C5.3335 22.9143 5.45702 23.0976 5.64578 23.1741L5.8335 22.7106ZM16.5002 27.0313L16.3124 27.4947C16.4328 27.5435 16.5675 27.5435 16.6879 27.4947L16.5002 27.0313ZM27.1668 22.7106L27.3545 23.1741C27.5433 23.0976 27.6668 22.9143 27.6668 22.7106H27.1668ZM27.1668 10.2887H27.6668C27.6668 10.087 27.5457 9.90508 27.3596 9.82734L27.1668 10.2887ZM16.2157 14.4744L16.019 14.934L16.2144 15.0176L16.4101 14.935L16.2157 14.4744ZM16.3074 5.37164L5.64077 9.82734L6.02622 10.7501L16.6929 6.29437L16.3074 5.37164ZM5.3335 10.2887V22.7106H6.3335V10.2887H5.3335ZM5.64578 23.1741L16.3124 27.4947L16.6879 26.5679L6.02121 22.2472L5.64578 23.1741ZM16.6879 27.4947L27.3545 23.1741L26.9791 22.2472L16.3124 26.5679L16.6879 27.4947ZM27.6668 22.7106V10.2887H26.6668V22.7106H27.6668ZM27.3596 9.82734L16.6929 5.37164L16.3074 6.29437L26.9741 10.7501L27.3596 9.82734ZM5.92125 10.6134L16.019 14.934L16.4124 14.0147L6.31463 9.69399L5.92125 10.6134ZM16.4101 14.935L26.6501 10.6144L26.2613 9.69301L16.0213 14.0137L16.4101 14.935ZM15.7157 14.7444V27.1663H16.7157V14.7444H15.7157ZM11.156 12.9077L21.9649 8.18196L21.5643 7.2657L10.7554 11.9914L11.156 12.9077Z" fill="black"/>
</svg>
