<svg xmlns="http://www.w3.org/2000/svg" width="132" height="83" viewBox="0 0 132 83">
    <g fill="none" fill-rule="evenodd">
        <path fill="#FFF" d="M0 0h132v83H0z"/>
        <path fill="#000" d="M32.344 53.758h-3.341V41.182h-2.309c-.304 4.363-2.065 8.212-5.862 8.212-4.161 0-5.832-4.758-5.832-9.727 0-4.91 1.67-9.637 5.832-9.637 3.827 0 5.558 3.849 5.862 8.243h2.309v-9.758h3.34v25.243zM37.75 55V28h-3.342v27h3.342zM23.444 39.697c0-3.606-.76-6.576-2.582-6.576-1.761 0-2.52 2.97-2.52 6.576 0 3.606.759 6.545 2.52 6.545 1.823 0 2.582-2.939 2.582-6.545zm42.008 11.788v-2.818H41.001v2.818h24.451zm-.516-11.06c-4.131-.698-9.842-4.243-9.842-9v-1.789H51.39v1.788c0 4.788-5.377 8.364-9.811 9l1.67 2.879c3.736-.818 8.566-3.697 9.963-7.333 1.55 3.545 6.227 6.363 9.933 7.212l1.792-2.758zm23.935-9.486H70.19v2.788h15.126c0 1.273-.06 2.818-.152 4.425-5.285.242-10.6.454-15.946.666l.455 2.818c5.103-.242 10.236-.545 15.34-.788-.213 2.334-.487 4.576-.882 6.182 1.124.091 2.309.182 3.402.303.79-3.181 1.337-9.697 1.337-16.394zm2.855 20.485v-2.788H67.275v2.788h24.451zm23.966-6.818v-2.848H100.2v-3.273h14.7v-8.758H96.526v2.818h14.853v3.122h-14.7v8.94h7.259v4.211H93.549v2.818H118v-2.818h-10.51v-4.212h8.202z"/>
    </g>
</svg>
