<svg width="33" height="33" viewBox="0 0 33 33" fill="none" xmlns="http://www.w3.org/2000/svg">
<path fill-rule="evenodd" clip-rule="evenodd" d="M10.3706 5.4209H9.97061V5.8209V7.79395H9.25586H8.85586V8.19395V26.7783H6.88818V27.5783H8.85586V27.579H9.25586H12.8983V27.5797H13.2983H19.7061H20.1061V27.579H23.743H24.143V27.5783H26.1115V26.7783H24.143V8.19395V7.79395H23.743H23.029V5.8209V5.4209H22.629H10.3706ZM23.343 26.7783V8.59395H9.65586V26.7783H12.8983V22.9918V22.5918H13.2983H19.7061H20.1061V22.9918V26.7783H23.343ZM19.3061 26.7783V23.3918H13.6983V26.7783H19.3061ZM22.229 7.79395V6.2209H10.7706V7.79395H22.229ZM12.1812 10.7246H11.7812V11.1246V14.0561V14.4561H12.1812H15.1064H15.5064V14.0561V11.1246V10.7246H15.1064H12.1812ZM12.5812 13.6561V11.5246H14.7064V13.6561H12.5812ZM17.4906 10.7266H17.8906H20.8159H21.2159V11.1266V14.0581V14.4581H20.8159H17.8906H17.4906V14.0581V11.1266V10.7266ZM18.2906 11.5266V13.6581H20.4159V11.5266H18.2906ZM12.1812 16.7275H11.7812V17.1275V20.059V20.459H12.1812H15.1064H15.5064V20.059V17.1275V16.7275H15.1064H12.1812ZM12.5812 19.659V17.5275H14.7064V19.659H12.5812ZM17.4906 16.7275H17.8906H20.8159H21.2159V17.1275V20.059V20.4591H20.8159H17.8906H17.4906V20.059V17.1275V16.7275ZM18.2906 17.5275V19.659H20.4159V17.5275H18.2906Z" fill="black"/>
</svg>
